<svg version="1.1" xmlns="http://www.w3.org/2000/svg" xmlns:xlink="http://www.w3.org/1999/xlink" width="53" height="50" viewBox="0,0,256,241.5"><g fill="#ffffff" fill-rule="nonzero" stroke="none" stroke-width="1" stroke-linecap="butt" stroke-linejoin="miter" stroke-miterlimit="10" stroke-dasharray="" stroke-dashoffset="0" font-family="none" font-weight="none" font-size="none" text-anchor="none" style="mix-blend-mode: normal"><g transform="translate(0,-0.00463) scale(4.83019,4.83019)"><path d="M50.9766,26.5234c0.8413,0 1.5234,-0.6821 1.5234,-1.5234v-11.375c0,-0.8413 -0.6821,-1.5234 -1.5234,-1.5234c-1.062,0 -21.8086,0 -22.9532,0v-9.8516c0,-0.84134 -0.6821,-1.52344 -1.5234,-1.52344h-16.25c-0.84134,0 -1.52344,0.6821 -1.52344,1.52344v9.8516h-6.70312c-0.84135,0 -1.52344,0.6821 -1.52344,1.5234v11.375c0,0.8413 0.68209,1.5234 1.52344,1.5234h6.70312v8.3282h-6.70312c-0.84135,0 -1.52344,0.6821 -1.52344,1.5234v11.375c0,0.8413 0.68209,1.5234 1.52344,1.5234h48.95316c0.8413,0 1.5234,-0.6821 1.5234,-1.5234v-11.375c0,-0.8413 -0.6821,-1.5234 -1.5234,-1.5234h-6.7032v-8.3282zM49.4531,23.4766c-1.6299,0 -11.6934,0 -13.3047,0v-8.3282h13.3047zM33.1016,23.4766c-1.5957,0 -11.597,0 -13.2032,0v-8.3282h13.2032zM11.7734,3.77344h13.2032v8.32816c-1.5957,0 -11.597,0 -13.2032,0zM3.54688,23.4766v-8.3282h13.30472v8.3282c-1.612,0 -11.67515,0 -13.30472,0zM11.7734,26.5234h13.2032v8.3282c-1.5957,0 -11.597,0 -13.2032,0zM3.54688,37.8984h13.30472v8.3282h-13.30472zM19.8984,37.8984h13.2032v8.3282h-13.2032zM49.4531,37.8984v8.3282h-13.3047v-8.3282zM41.2266,34.8516c-1.5957,0 -11.597,0 -13.2032,0v-8.3282h13.2032z"></path></g></g></svg>