<svg version="1.1" xmlns="http://www.w3.org/2000/svg" xmlns:xlink="http://www.w3.org/1999/xlink" width="47" height="52" viewBox="0,0,231.375,256"><g fill="#ffffff" fill-rule="nonzero" stroke="none" stroke-width="1" stroke-linecap="butt" stroke-linejoin="miter" stroke-miterlimit="10" stroke-dasharray="" stroke-dashoffset="0" font-family="none" font-weight="none" font-size="none" text-anchor="none" style="mix-blend-mode: normal"><g transform="translate(-0.50475,0) scale(4.92308,4.92308)"><path d="M40.3594,4.57031c0,-2.52002 -2.0503,-4.57031 -4.5703,-4.57031h-30.46879c-2.52002,0 -4.57031,2.05029 -4.57031,4.57031v9.14059c0,2.5201 2.05029,4.5703 4.57031,4.5703h30.46879c2.52,0 4.5703,-2.0502 4.5703,-4.5703v-1.5234h1.5234c0.8399,0 1.5234,0.6836 1.5234,1.5234v6.0938c0,0.8399 -0.6835,1.5234 -1.5234,1.5234h-18.2812c-2.5201,0 -4.5704,2.0503 -4.5704,4.5703v4.5704h-1.5234c-0.8414,0 -1.5234,0.6819 -1.5234,1.5234v6.0108l-1.5235,6.1922c-0.9906,3.9621 2.0031,7.8048 6.0938,7.8048c4.0926,0 7.0832,-3.8467 6.0953,-7.7993l-1.525,-6.1977v-6.0108c0,-0.8415 -0.682,-1.5234 -1.5234,-1.5234h-1.5235v-4.5704c0,-0.8398 0.6836,-1.5234 1.5235,-1.5234h18.2812c2.52,0 4.5703,-2.0503 4.5703,-4.5703v-6.0938c0,-2.52 -2.0503,-4.57028 -4.5703,-4.57028h-1.5234zM22.0781,33.5156v3.1485h-3.0469v-3.1485zM20.5547,48.9531c-2.0987,0 -3.6503,-1.9697 -3.1365,-4.0244l1.2838,-5.2178h3.7054l1.285,5.2234c0.5102,2.0403 -1.0315,4.0188 -3.1377,4.0188zM5.32031,3.04688h30.46879c0.8398,0 1.5234,0.68356 1.5234,1.52343v1.52344h-4.5703c-1.4806,0 -3.3738,0.55463 -5.5661,1.19653c-2.9612,0.86725 -6.3171,1.85034 -9.6683,1.85034c-3.2666,0 -5.5697,-0.95413 -7.6017,-1.79559c-1.55359,-0.64349 -3.02069,-1.25128 -4.58579,-1.25128h-1.52343v-1.52344c0,-0.83987 0.68356,-1.52343 1.52343,-1.52343zM37.3125,13.7109c0,0.8399 -0.6836,1.5235 -1.5234,1.5235h-30.46879c-0.83987,0 -1.52343,-0.6836 -1.52343,-1.5235v-4.57028h1.52343c0.9589,0 2.04514,0.4499 3.4198,1.01918c2.18079,0.9034 4.89479,2.0277 8.76769,2.0277c3.7884,0 7.5232,-1.0942 10.5248,-1.9729c1.8853,-0.55228 3.6662,-1.07398 4.7096,-1.07398h4.5703z"></path></g></g></svg>