<svg version="1.1" xmlns="http://www.w3.org/2000/svg" xmlns:xlink="http://www.w3.org/1999/xlink" width="48" height="48" viewBox="0,0,256,256"><g fill="#ffffff" fill-rule="nonzero" stroke="none" stroke-width="1" stroke-linecap="butt" stroke-linejoin="miter" stroke-miterlimit="10" stroke-dasharray="" stroke-dashoffset="0" font-family="none" font-weight="none" font-size="none" text-anchor="none" style="mix-blend-mode: normal"><g transform="scale(5.33333,5.33333)"><path d="M45.4619,28.569c0.9593,-1.2982 1.1361,-3.1087 0.2637,-4.6194l-5.6221,-9.8316c-0.9725,-1.6845 -3.0234,-2.4532 -4.8528,-1.9642c0.3895,-1.7509 -0.3748,-3.62939 -2.0084,-4.57261l-9.7423,-5.62463c-1.3913,-0.80343 -3.0549,-0.72112 -4.3343,0.07022c-0.7415,-1.21434 -2.0792,-2.02678 -3.6032,-2.02678h-11.34375c-2.32622,0 -4.21875,1.89253 -4.21875,4.21875c0,0.97547 0,38.43955 0,39.56245c0,2.3263 1.89253,4.2188 4.21875,4.2188c1.09247,0 34.21575,0 39.56245,0c2.3263,0 4.2188,-1.8925 4.2188,-4.2188v-11.3437c0,-1.729 -1.046,-3.2178 -2.5381,-3.8685zM16.9688,43.7812c0,0.7755 -0.6309,1.4063 -1.4063,1.4063h-11.34375c-0.77541,0 -1.40625,-0.6308 -1.40625,-1.4063c0,-0.6424 0,-12.1329 0,-12.75h14.1563zM16.9688,28.2188h-14.1563v-11.3438h14.1563zM16.9688,14.0625h-14.1563v-9.84375c0,-0.77541 0.63084,-1.40625 1.40625,-1.40625h11.34375c0.7754,0 1.4063,0.63084 1.4063,1.40625zM19.7812,5.5845l0.3911,-0.67734c0.3879,-0.67172 1.2499,-0.90272 1.9215,-0.51488l9.7422,5.62462c0.6717,0.3878 0.9026,1.2498 0.5138,1.9234l-1.6249,2.8244c-0.0407,0.0601 -0.0773,0.1225 -0.108,0.1877l-10.8357,18.8346zM19.7812,39.427l13.1459,-22.8503l2.7181,-1.5693c0.689,-0.3978 1.6341,-0.1562 2.0198,0.5118l5.6221,9.8315c0.3889,0.6735 0.1621,1.537 -0.5183,1.9298c-1.0043,0.5813 -21.9986,12.7356 -22.9876,13.3081zM45.1875,43.7812c0,0.7755 -0.6308,1.4063 -1.4063,1.4063h-24.2418c0.1499,-0.4228 0.234,-0.8762 0.2404,-1.3482l22.1236,-12.8081h1.8778c0.7755,0 1.4063,0.6309 1.4063,1.4063z"></path></g></g></svg>