<svg version="1.1" xmlns="http://www.w3.org/2000/svg" xmlns:xlink="http://www.w3.org/1999/xlink" width="53" height="52" viewBox="0,0,256,251.15625"><defs><clipPath id="clip-1"><rect x="0.5" y="0" width="52" height="52" id="clip0_47901_1789" fill="none"></rect></clipPath></defs><g fill="none" fill-rule="nonzero" stroke="none" stroke-width="1" stroke-linecap="butt" stroke-linejoin="miter" stroke-miterlimit="10" stroke-dasharray="" stroke-dashoffset="0" font-family="none" font-weight="none" font-size="none" text-anchor="none" style="mix-blend-mode: normal"><g transform="translate(0,-0.00678) scale(4.83019,4.83019)"><g clip-path="url(#clip-1)"><path d="M46.4062,3.14844c-2.251,0 -4.2208,1.22677 -5.2759,3.04687h-39.10686c-0.84135,0 -1.52344,0.6821 -1.52344,1.52344v39.60935c0,0.8414 0.68209,1.5235 1.52344,1.5235h44.38276c3.3601,0 6.0938,-2.7337 6.0938,-6.0938v-33.51561c0,-3.3601 -2.7337,-6.09375 -6.0938,-6.09375zM46.4062,45.8047c-0.5959,0 -42.3051,0 -42.85932,0v-36.56251h36.76562v33.51561c0,0.8414 0.6821,1.5234 1.5234,1.5234c0.8414,0 1.5235,-0.682 1.5235,-1.5234c0,-1.68 1.3668,-3.0469 3.0468,-3.0469c1.6801,0 3.0469,1.3669 3.0469,3.0469c0,1.6801 -1.3668,3.0469 -3.0469,3.0469zM49.4531,37.4818c-0.8968,-0.5199 -1.9378,-0.8177 -3.0469,-0.8177c-1.109,0 -2.15,0.2978 -3.0468,0.8177v-28.23961c0,-1.68005 1.3668,-3.04688 3.0468,-3.04688c1.6801,0 3.0469,1.36683 3.0469,3.04688z" fill="#ffffff"></path><path d="M35.6406,12.2891h-27.42185c-0.84134,0 -1.52344,0.6821 -1.52344,1.5234v27.4219c0,0.8413 0.6821,1.5234 1.52344,1.5234h15.23435c0.4041,0 0.7915,-0.1606 1.0772,-0.4463c0.2858,-0.2856 0.4463,-0.6731 0.4463,-1.0771v-3.0469c0,-1.9862 1.2735,-3.6805 3.0468,-4.3093v7.3562c0,0.8413 0.6821,1.5234 1.5235,1.5234h6.0937c0.8414,0 1.5235,-0.6821 1.5235,-1.5234v-27.4219c0,-0.8413 -0.6821,-1.5234 -1.5235,-1.5234zM34.1172,39.7109h-3.0469v-7.6171c0,-0.8414 -0.6821,-1.5235 -1.5234,-1.5235c-4.2001,0 -7.6172,3.4171 -7.6172,7.6172v1.5234h-12.18751v-9.1406h6.09371v4.5703c0,0.8414 0.6821,1.5235 1.5235,1.5235c0.8413,0 1.5234,-0.6821 1.5234,-1.5235v-6.0937c0,-0.8414 -0.6821,-1.5235 -1.5234,-1.5235h-7.61721v-12.1875h9.14061v6.0938h-4.5703c-0.8413,0 -1.5234,0.6821 -1.5234,1.5234c0,0.8414 0.6821,1.5235 1.5234,1.5235h6.0937h6.0938c0.8413,0 1.5234,-0.6821 1.5234,-1.5235c0,-0.8413 -0.6821,-1.5234 -1.5234,-1.5234h-4.5703v-6.0938h12.1875z" fill="#ffffff"></path></g></g></g></svg>